<?xml version="1.0" encoding="UTF-8" standalone="no"?>
<!-- Created with Inkscape (http://www.inkscape.org/) -->

<svg
   width="211.66667mm"
   height="43.570747mm"
   viewBox="0 0 211.66667 43.570745"
   version="1.1"
   id="svg5"
   inkscape:version="1.1.1 (3bf5ae0d25, 2021-09-20)"
   sodipodi:docname="ProSeCo_logo.svg"
   inkscape:export-filename="C:\Users\karlk\Desktop\ProSeCo_logo.png"
   inkscape:export-xdpi="96"
   inkscape:export-ydpi="96"
   xmlns:inkscape="http://www.inkscape.org/namespaces/inkscape"
   xmlns:sodipodi="http://sodipodi.sourceforge.net/DTD/sodipodi-0.dtd"
   xmlns="http://www.w3.org/2000/svg"
   xmlns:svg="http://www.w3.org/2000/svg">
  <sodipodi:namedview
     id="namedview7"
     pagecolor="#ffffff"
     bordercolor="#666666"
     borderopacity="1.0"
     inkscape:pageshadow="2"
     inkscape:pageopacity="0.0"
     inkscape:pagecheckerboard="0"
     inkscape:document-units="px"
     showgrid="false"
     showborder="true"
     fit-margin-top="0"
     fit-margin-left="0"
     fit-margin-right="0"
     fit-margin-bottom="0"
     inkscape:zoom="1.4142136"
     inkscape:cx="428.86026"
     inkscape:cy="203.2932"
     inkscape:window-width="3840"
     inkscape:window-height="1529"
     inkscape:window-x="-8"
     inkscape:window-y="-8"
     inkscape:window-maximized="1"
     inkscape:current-layer="layer1" />
  <defs
     id="defs2" />
  <g
     inkscape:label="Layer 1"
     inkscape:groupmode="layer"
     id="layer1"
     transform="translate(186.00209,-49.724041)">
    <g
       id="g1226"
       transform="matrix(0.38637431,0,0,0.38637431,-114.13566,30.511949)">
      <g
         id="g15641"
         style="fill:#999999">
        <text
           xml:space="preserve"
           style="font-size:85.6648px;line-height:1;font-family:sans-serif;letter-spacing:-5.54455px;word-spacing:0px;fill:#999999;fill-opacity:1;stroke-width:6.42486"
           x="69.249046"
           y="112.69277"
           id="text130906"><tspan
             sodipodi:role="line"
             style="font-style:normal;font-variant:normal;font-weight:normal;font-stretch:normal;font-family:Consolas;-inkscape-font-specification:Consolas;fill:#999999;fill-opacity:1;stroke-width:6.42486"
             x="69.249046"
             y="112.69277"
             id="tspan6979">ProSeCo</tspan></text>
        <text
           xml:space="preserve"
           style="font-size:37.3219px;line-height:1;font-family:sans-serif;letter-spacing:-2.41562px;word-spacing:0px;fill:#999999;fill-opacity:1;stroke-width:2.79915"
           x="72.978622"
           y="147.29242"
           id="text130906-4"><tspan
             sodipodi:role="line"
             style="font-style:normal;font-variant:normal;font-weight:normal;font-stretch:normal;font-family:Consolas;-inkscape-font-specification:Consolas;fill:#999999;fill-opacity:1;stroke-width:2.79915"
             x="72.978622"
             y="147.29242"
             id="tspan6979-5">Planning</tspan></text>
      </g>
      <g
         id="g130902"
         transform="matrix(1.4206929,0,0,1.4206929,-17.226722,-15.159119)">
        <g
           id="g40097">
          <path
             id="path17807"
             style="fill:#076692;fill-opacity:1;stroke-width:0"
             d="m -118.79792,85.35758 a 39.6875,39.6875 0 0 0 39.687504,39.6875 39.6875,39.6875 0 0 0 39.6875,-39.6875 h -13.229167 a 26.458332,26.458332 0 0 1 -26.458333,26.45833 26.458332,26.458332 0 0 1 -26.458334,-26.45833 z" />
          <path
             id="circle26345"
             style="fill:#00aad4;fill-opacity:1;stroke-width:0"
             d="M -118.79792,85.35758 A 33.072916,33.072916 0 0 0 -85.724999,118.4305 33.072916,33.072916 0 0 0 -52.660867,86.038676 26.458332,26.458332 0 0 1 -79.110416,111.81591 26.458332,26.458332 0 0 1 -105.56875,85.35758 Z" />
        </g>
        <path
           id="path17807-1"
           style="fill:#00aad4;fill-opacity:1;stroke-width:0"
           d="m -266.21484,322.61328 a 150,150 0 0 0 150,150 150,150 0 0 0 149.999996,-150 h -50 a 99.999998,99.999998 0 0 1 -99.999996,100 99.999998,99.999998 0 0 1 -100,-100 z"
           transform="scale(0.26458333)" />
        <path
           id="circle26345-5"
           style="fill:#0a93d0;fill-opacity:1;stroke-width:0"
           d="m -266.21484,322.61328 a 125,125 0 0 0 125,125 125,125 0 0 0 124.966793,-122.42578 99.999998,99.999998 0 0 1 -99.966793,97.42578 99.999998,99.999998 0 0 1 -100,-100 z"
           transform="scale(0.26458333)" />
        <path
           id="path17807-3"
           style="fill:#0a93d0;fill-opacity:1;stroke-width:0"
           d="m 57.300441,85.35783 a 39.6875,39.6875 0 0 1 -39.6875,39.6875 39.6875,39.6875 0 0 1 -39.687499,-39.6875 39.6875,39.6875 0 0 1 39.687499,-39.687499 39.6875,39.6875 0 0 1 39.6875,39.687499 z m -13.229167,0 A 26.458333,26.458333 0 0 0 17.612941,58.899497 26.458333,26.458333 0 0 0 -8.8453919,85.35783 26.458333,26.458333 0 0 0 17.612941,111.81616 26.458333,26.458333 0 0 0 44.071274,85.35783 Z" />
        <path
           id="circle26345-7"
           style="fill:#076692;fill-opacity:1;stroke-width:0"
           d="M 44.06249,84.676735 A 26.458333,26.458333 0 0 0 17.612941,58.899497 26.458333,26.458333 0 0 0 -8.8453919,85.35783 26.458333,26.458333 0 0 0 17.612941,111.81616 26.458333,26.458333 0 0 0 43.997376,87.336003 33.072916,33.072916 0 0 1 10.998358,118.43075 33.072916,33.072916 0 0 1 -22.074558,85.35783 33.072916,33.072916 0 0 1 10.998358,52.284914 33.072916,33.072916 0 0 1 44.06249,84.676735 Z" />
        <g
           id="g40213">
          <path
             id="path40207"
             style="fill:#00aad4;fill-opacity:1;stroke-width:0"
             d="m -70.436009,85.358096 a 39.687499,39.687499 0 0 1 39.6875,-39.6875 39.687499,39.687499 0 0 1 39.6874981,39.6875 H -4.2901773 A 26.458332,26.458332 0 0 0 -30.748509,58.899763 26.458332,26.458332 0 0 0 -57.206842,85.358096 Z" />
          <path
             id="path40209"
             style="fill:#0a93d0;fill-opacity:1;stroke-width:0"
             d="M -70.436009,85.358096 A 33.072916,33.072916 0 0 1 -37.363093,52.285179 33.072916,33.072916 0 0 1 -4.2989623,84.677 26.458332,26.458332 0 0 0 -30.748509,58.899763 26.458332,26.458332 0 0 0 -57.206842,85.358096 Z" />
        </g>
        <g
           id="g40091"
           transform="translate(24.738542,20.108334)">
          <path
             id="path40081"
             style="fill:#076692;fill-opacity:1;stroke-width:0"
             d="m -143.53646,65.249246 a 39.6875,39.6875 0 0 1 39.6875,-39.687499 39.6875,39.6875 0 0 1 39.687502,39.687499 h -13.229167 a 26.458332,26.458332 0 0 0 -26.458335,-26.458333 26.458332,26.458332 0 0 0 -26.45833,26.458333 z" />
          <path
             id="path40083"
             style="fill:#00aad4;fill-opacity:1;stroke-width:0"
             d="m -143.53646,65.249246 a 33.072916,33.072916 0 0 1 33.07292,-33.072916 33.072916,33.072916 0 0 1 33.064131,32.391816 26.458332,26.458332 0 0 0 -26.449551,-25.777233 26.458332,26.458332 0 0 0 -26.45833,26.458333 z" />
        </g>
      </g>
    </g>
  </g>
</svg>
